<svg width="500" height="500" viewBox="0 0 500 500" fill="none" xmlns="http://www.w3.org/2000/svg">
<rect width="500" height="500" fill="#556EF2"/>
<path d="M44.4815 195.909H72.9261L102.969 269.205H104.247L134.29 195.909H162.734V305H140.362V233.995H139.457L111.225 304.467H95.9908L67.7592 233.729H66.8537V305H44.4815V195.909ZM181.737 305V195.909H255.246V214.925H204.802V240.92H251.464V259.936H204.802V285.984H255.459V305H181.737ZM273.583 305V195.909H296.648V285.984H343.416V305H273.583ZM380.277 305H355.561L393.221 195.909H422.944L460.55 305H435.835L408.509 220.838H407.656L380.277 305ZM378.732 262.12H437.113V280.124H378.732V262.12Z" fill="white"/>
</svg>
