<svg width="18" height="18" viewBox="0 0 18 18" fill="none" xmlns="http://www.w3.org/2000/svg">
<path d="M10.0001 5.79984V4.79984H8.00008V5.79984H10.0001ZM8.00008 12.1998V13.1998H10.0001V12.1998H8.00008ZM5.80086 7.99982H4.80086V9.99982H5.80086V7.99982ZM12.2009 9.99982H13.2009V7.99982H12.2009V9.99982ZM16 9C16 12.866 12.866 16 9 16V18C13.9706 18 18 13.9706 18 9H16ZM9 16C5.13401 16 2 12.866 2 9H0C0 13.9706 4.02944 18 9 18V16ZM2 9C2 5.13401 5.13401 2 9 2V0C4.02944 0 0 4.02944 0 9H2ZM9 2C12.866 2 16 5.13401 16 9H18C18 4.02944 13.9706 0 9 0V2ZM8.00008 5.79984V12.1998H10.0001V5.79984H8.00008ZM5.80086 9.99982H12.2009V7.99982H5.80086V9.99982Z" fill="#556EF2"/>
</svg>
